<svg xmlns="http://www.w3.org/2000/svg" width="2020" height="432.981" viewBox="-91 656.017 2020 432.981"><g data-name="wave"><path d="M-60 1088.998h1919v-278c-166.158-34.99-239.418-35.807-349-3-97.709 29.252-239.342 60.49-401 30C947.342 807.51 786.158 820.491 609 870c-177.158 49.508-352.342 16.487-406 1-49.294-14.23-176.677-60.132-264.646-43.077L-60 1088.998Z" fill="rgba(255, 255, 255, 1)" fill-rule="evenodd" data-name="wave-btm"/><path d="M-62 907.999h1971l-8-93.776c-68.658-63.265-154.39-215.572-574-135.455-410.85 78.445-524.5 53.587-689 41.679-164.5-11.91-641.75-61.008-729 113.127l29 74.425Z" fill="rgba(255, 255, 255, 1)" fill-rule="evenodd" data-name="wave1"/><path d="M1929 820.705c-213.265-59.768-427.962-134.801-784-81.108-356.037 53.693-464.748 14.165-590-20.026-125.252-34.192-347.661-92.21-628-20.027v342.454h1997l5-221.293Z" fill="rgba(255, 255, 255, 1)" fill-rule="evenodd" data-name="wave2"/></g></svg>